<?xml version="1.0" encoding="UTF-8" standalone="no"?>
<svg
   xmlns:dc="http://purl.org/dc/elements/1.1/"
   xmlns:cc="http://creativecommons.org/ns#"
   xmlns:rdf="http://www.w3.org/1999/02/22-rdf-syntax-ns#"
   xmlns:svg="http://www.w3.org/2000/svg"
   xmlns="http://www.w3.org/2000/svg"
   viewBox="0 0 619.9992 73.333199"
   height="73.333199"
   width="619.99921"
   xml:space="preserve"
   id="svg2"
   version="1.1"><metadata
     id="metadata8"><rdf:RDF><cc:Work
         rdf:about=""><dc:format>image/svg+xml</dc:format><dc:type
           rdf:resource="http://purl.org/dc/dcmitype/StillImage" /></cc:Work></rdf:RDF></metadata><defs
     id="defs6"><clipPath
       id="clipPath18"
       clipPathUnits="userSpaceOnUse"><path
         id="path16"
         d="M 0,55 H 505 V 0 H 0 Z" /></clipPath></defs><g
     transform="matrix(1.3333333,0,0,-1.3333333,-53.334132,73.333331)"
     id="g10"><g
       id="g12"><g
         clip-path="url(#clipPath18)"
         id="g14"><g
           transform="translate(333.0905,15.4215)"
           id="g20"><path
             id="path22"
             style="fill:#14110e;fill-opacity:1;fill-rule:nonzero;stroke:none"
             d="M 0,0 H -0.089 V 12.896 H 6.264 V 3.749 h 0.01 C 6.274,3.745 6.264,3.742 6.264,3.729 6.264,1.675 8.114,0 10.396,0 c 0.012,0 0.018,0.006 0.037,0.006 V 0 H 25.759 V 0.006 C 25.777,0.012 25.777,0 25.796,0 c 2.276,0 4.126,1.675 4.126,3.729 0,0.013 -0.011,0.016 -0.011,0.02 h 0.011 v 35.83 h 6.357 V 0 H 36.18 C 35.7,-2.916 33.15,-5.222 29.922,-5.657 V -5.739 H 6.264 v 0.082 C 3.03,-5.222 0.478,-2.916 0,0" /></g><g
           transform="translate(409.7136,9.6823)"
           id="g24"><path
             id="path26"
             style="fill:#14110e;fill-opacity:1;fill-rule:nonzero;stroke:none"
             d="M 0,0 V 5.74 35.631 H -6.358 V 5.74 h -16.728 v 0.005 c -0.012,0 -0.025,-0.005 -0.033,-0.005 -2.284,0 -4.126,1.673 -4.126,3.727 v 0.031 26.133 h -6.358 V 5.74 h 0.084 c 0.484,-2.912 3.04,-5.222 6.274,-5.659 V 0 h 20.887 z" /></g><g
           transform="translate(458.2888,45.2252)"
           id="g28"><path
             id="path30"
             style="fill:#14110e;fill-opacity:1;fill-rule:nonzero;stroke:none"
             d="m 0,0 v 0.088 h -14.556 -6.359 -14.554 -6.353 v -5.739 -29.892 h 6.353 v 29.892 h 14.554 v -29.892 h 6.359 v 29.892 h 10.401 v -0.004 c 0.006,0 0.018,0.004 0.029,0.004 C -1.85,-5.651 0,-7.319 0,-9.376 0,-9.387 -0.017,-9.392 -0.017,-9.402 H 0 V -35.543 H 6.357 V -5.651 H 6.263 C 5.794,-2.73 3.229,-0.427 0,0" /></g><g
           transform="translate(494.4812,39.5641)"
           id="g32"><path
             id="path34"
             style="fill:#14110e;fill-opacity:1;fill-rule:nonzero;stroke:none"
             d="m 0,0 c 0.011,0 0.024,0.006 0.038,0.006 2.278,0 4.12,-1.664 4.12,-3.72 0,-0.012 -0.003,-0.017 -0.003,-0.028 H 4.158 V -20.393 H 4.155 c 0,-0.005 0.003,-0.007 0.003,-0.022 0,-2.054 -1.842,-3.728 -4.12,-3.728 -0.014,0 -0.032,0.006 -0.038,0.006 v -0.006 H -16.741 V 0.006 H 0 Z m 4.158,5.75 h -27.247 v -5.744 -24.149 -5.739 -9.682 h 6.348 v 9.682 H 4.158 v 0.081 c 3.241,0.437 5.794,2.737 6.269,5.658 h 0.092 V 0.006 H 10.427 C 9.952,2.931 7.399,5.234 4.158,5.661 Z" /></g><path
           id="path36"
           style="fill:#14110e;fill-opacity:1;fill-rule:nonzero;stroke:none"
           d="m 333.002,0.005 h 131.645 v 4.56 H 333.002 Z" /><g
           transform="translate(97.3498,49.0529)"
           id="g38"><path
             id="path40"
             style="fill:#e22739;fill-opacity:1;fill-rule:nonzero;stroke:none"
             d="m 0,0 c 0,-2.45 -2.029,-4.437 -4.536,-4.437 -2.507,0 -4.532,1.987 -4.532,4.437 0,2.453 2.025,4.445 4.532,4.445 C -2.029,4.445 0,2.453 0,0" /></g><g
           transform="translate(68.4226,13.9147)"
           id="g42"><path
             id="path44"
             style="fill:#14110e;fill-opacity:1;fill-rule:evenodd;stroke:none"
             d="M 0,0 C 9.346,0.024 16.869,6.348 16.869,13.325 16.869,20.298 9.311,26.643 0,26.643 -9.345,26.62 -16.879,20.277 -16.879,13.314 -16.879,6.33 -9.321,0 0,0 m -28.422,13.325 c 0,10.208 12.724,18.498 28.416,18.498 15.697,0 28.421,-8.29 28.421,-18.498 0,-10.22 -12.724,-18.506 -28.421,-18.506 -15.692,0 -28.416,8.286 -28.416,18.506 M 78.562,11.242 c 0,-1.874 -0.964,-2.432 -2.493,-1.751 L 38.896,29.934 c -2.031,1.012 -7.303,2.23 -7.303,-3.174 V -2.559 c 0,-1.072 0.492,-1.584 1.561,-1.584 h 3.099 c 1.067,0 1.559,0.512 1.559,1.584 v 17.954 c 0,1.876 0.959,2.434 2.482,1.742 L 77.475,-3.297 c 2.027,-1.008 7.299,-2.224 7.299,3.173 v 29.326 c 0,1.067 -0.486,1.577 -1.562,1.577 h -3.098 c -1.059,0 -1.552,-0.51 -1.552,-1.577 z M 116.718,0 c 9.345,0.024 16.868,6.348 16.868,13.325 0,6.973 -7.555,13.318 -16.868,13.318 C 107.364,26.62 99.843,20.277 99.843,13.314 99.843,6.33 107.399,0 116.718,0 M 88.291,13.325 c 0,10.208 12.729,18.498 28.427,18.498 15.695,0 28.417,-8.29 28.417,-18.498 0,-10.22 -12.722,-18.506 -28.417,-18.506 -15.698,0 -28.427,8.286 -28.427,18.506 m 81.378,-17.468 c 1.075,0 1.561,0.512 1.561,1.584 v 25.541 c 0,1.077 0.485,1.589 1.557,1.589 h 16.064 c 1.072,0 1.586,0.488 1.586,1.553 v 3.105 c 0,1.071 -0.514,1.559 -1.586,1.559 h -44.995 c -1.073,0 -1.582,-0.488 -1.582,-1.559 v -3.105 c 0,-1.065 0.509,-1.553 1.582,-1.553 h 16.063 c 1.072,0 1.558,-0.512 1.558,-1.589 V -2.559 c 0,-1.072 0.49,-1.584 1.561,-1.584 z" /></g><g
           transform="translate(287.5798,37.9445)"
           id="g46"><path
             id="path48"
             style="fill:#e22739;fill-opacity:1;fill-rule:nonzero;stroke:none"
             d="m 0,0 c 0,-1.98 0.931,-3.724 2.678,-5.642 2.847,1.978 4.303,3.488 4.303,5.758 0,1.86 -1.107,3.897 -3.433,3.897 C 1.281,4.013 0,2.035 0,0 m 7.911,-22.566 c -2.442,2.443 -5.643,5.99 -8.841,9.596 -1.629,-1.164 -3.085,-2.849 -3.085,-5.41 0,-3.315 2.502,-6.163 6.517,-6.163 2.328,0 4.248,0.872 5.409,1.977 m 6.69,-7.733 c -0.815,0.87 -1.628,1.743 -2.559,2.79 -2.559,-1.976 -6.106,-3.433 -10.761,-3.433 -9.483,0 -13.671,5.643 -13.671,11.109 0,5.176 2.966,8.899 7.445,11.226 v 0.232 c -1.685,1.862 -2.966,4.768 -2.966,7.56 0,4.944 3.896,10.352 11.751,10.352 6.05,0 10.645,-3.547 10.645,-9.189 0,-3.955 -2.327,-7.327 -7.735,-10.061 L 6.69,-9.944 c 2.271,-2.503 4.654,-5.35 6.575,-7.33 1.571,2.442 2.793,6.049 3.315,9.539 h 7.911 c -1.046,-5.933 -3.025,-10.991 -6.514,-14.89 2.209,-2.499 4.478,-5.06 6.921,-7.674 z" /></g></g></g></g></svg>